<svg xmlns="http://www.w3.org/2000/svg" xmlns:xlink="http://www.w3.org/1999/xlink" width="167px" height="150px" viewBox="0 0 166.81413010000006 149.878380548118">
    <g id="0e01a4c6-6b3d-4c41-8359-f750b7449bf4">
<g style="">
		<g id="0e01a4c6-6b3d-4c41-8359-f750b7449bf4-child-0">
<path style="stroke: rgb(193,193,193); stroke-width: 0; stroke-dasharray: none; stroke-linecap: butt; stroke-dashoffset: 0; stroke-linejoin: miter; stroke-miterlimit: 4; fill: rgb(0,0,0); fill-rule: nonzero; opacity: 1;" transform="matrix(1.955617 0 0 1.955594 83.407065 74.93919) matrix(1 0 0 1 0 0)  translate(-94.36, -38.495788)" d="M 78.53 75.39 C 62.22 70.20 51.71 55.75 51.71 38.50 C 51.71 27.73 54.41 20.84 61.68 12.98 C 71.37 2.52 84.11 -1.75 97.52 0.98 C 106.86 2.89 117.23 9.20 115.54 11.94 C 115.12 12.62 113.70 12.11 111.63 10.53 C 105.00 5.48 99.12 3.57 89.98 3.54 C 82.33 3.50 80.78 3.84 74.79 6.78 C 61.94 13.11 55.00 24.23 55.00 38.50 C 55.00 48.38 57.67 55.39 64.13 62.45 C 70.58 69.51 77.84 73.11 86.93 73.76 C 95.71 74.39 102.81 72.67 109.24 68.34 C 112.04 66.45 114.97 65.16 115.74 65.46 C 117.79 66.24 112.54 70.41 105.34 73.71 C 98.00 77.07 86.13 77.82 78.53 75.39 z M 91.21 61.71 C 88.89 59.35 87.00 57.01 87.00 56.50 C 87.00 55.19 95.19 47.00 96.50 47.00 C 97.10 47.00 99.57 49.03 102.00 51.50 C 107.50 57.11 111.18 57.51 115.51 52.99 L 118.39 49.98 L 121.70 53.19 L 125.01 56.40 L 121.80 59.70 L 118.60 63.01 L 115.50 60.00 C 110.91 55.55 107.46 55.94 102.00 61.50 C 99.57 63.97 97.10 66.00 96.50 66.00 C 95.90 66.00 93.52 64.07 91.21 61.71 z M 69.73 46.23 L 62.00 38.45 L 69.77 30.73 C 70.92 29.59 72.05 28.50 73.09 27.52 C 75.93 24.86 78.15 23.00 78.55 23.00 C 79.10 23.00 82.90 26.38 87.00 30.50 C 96.07 39.63 97.70 39.92 104.00 33.50 C 106.43 31.02 108.90 29.00 109.50 29.00 C 110.10 29.00 112.57 31.02 115.00 33.50 C 120.30 38.90 123.13 39.24 127.50 35.00 L 130.60 31.99 L 133.80 35.30 L 137.01 38.60 L 133.70 41.81 L 130.39 45.02 L 127.51 42.01 C 123.36 37.68 120.36 38.04 115.00 43.50 C 112.57 45.97 110.10 48.00 109.50 48.00 C 108.90 48.00 106.43 45.97 104.00 43.50 C 97.70 37.08 96.07 37.37 87.00 46.50 C 82.90 50.62 79.08 54.00 78.50 54.00 C 77.92 54.00 73.98 50.50 69.73 46.23 z M 90.99 25.48 L 86.55 20.97 L 91.76 15.76 L 96.97 10.55 L 101.77 15.27 C 107.68 21.09 111.16 21.53 115.51 16.99 L 118.39 13.98 L 121.70 17.19 L 125.01 20.40 L 121.84 23.66 L 118.68 26.93 L 115.30 23.96 C 110.43 19.68 107.36 20.04 102.00 25.50 C 99.57 27.98 97.10 30.00 96.50 30.00 C 95.90 30.00 93.42 27.97 90.99 25.48 z" stroke-linecap="round"/>
</g>
</g>
</g>

  </svg>